<svg xmlns="http://www.w3.org/2000/svg" version="1.1" xmlns:xlink="http://www.w3.org/1999/xlink" xmlns:svgjs="http://svgjs.com/svgjs" width="1440" height="560" preserveAspectRatio="none" viewBox="0 0 1440 560"><g mask="url(&quot;#SvgjsMask1003&quot;)" fill="none"><path d="M759.05 670.34C896.2 657.75 963.07 384.57 1221.93 371.62 1480.79 358.67 1561.73 206.19 1684.81 203.62" stroke="rgba(51,121,194,0.58)" stroke-width="2"></path><path d="M544.75 611.21C694.92 609.5 816.46 448.44 1121.42 442.9 1426.39 437.36 1542.98 217.47 1698.1 213.3" stroke="rgba(51,121,194,0.58)" stroke-width="2"></path><path d="M846.26 659.26C983.85 625.52 1031.52 258.15 1242.06 253.72 1452.6 249.29 1534.64 370.09 1637.86 371.32" stroke="rgba(51,121,194,0.58)" stroke-width="2"></path><path d="M707.29 584.63C832.56 524.53 770.89 123.96 1012.04 119.86 1253.19 115.76 1464.21 275.41 1621.54 276.66" stroke="rgba(51,121,194,0.58)" stroke-width="2"></path><path d="M307.5 576.98C459.37 511.99 392.5 40.01 688.73 37.28 984.96 34.55 1252.14 264.41 1451.19 266.88" stroke="rgba(51,121,194,0.58)" stroke-width="2"></path></g><defs><mask id="SvgjsMask1003"><rect width="1440" height="560" fill="#ffffff"></rect></mask></defs></svg>