<svg xmlns="http://www.w3.org/2000/svg" version="1.1" xmlns:xlink="http://www.w3.org/1999/xlink" xmlns:svgjs="http://svgjs.com/svgjs" width="1440" height="560" preserveAspectRatio="none" viewBox="0 0 1440 560"><g mask="url(&quot;#SvgjsMask1021&quot;)" fill="none"><path d="M1014 474L1013 317" stroke-width="6" stroke="url(#SvgjsLinearGradient1022)" stroke-linecap="round" class="Down"></path><path d="M564 61L563 306" stroke-width="10" stroke="url(#SvgjsLinearGradient1023)" stroke-linecap="round" class="Up"></path><path d="M1331 387L1330 -8" stroke-width="8" stroke="url(#SvgjsLinearGradient1023)" stroke-linecap="round" class="Up"></path><path d="M1312 198L1311 420" stroke-width="6" stroke="url(#SvgjsLinearGradient1023)" stroke-linecap="round" class="Up"></path><path d="M590 270L589 443" stroke-width="6" stroke="url(#SvgjsLinearGradient1023)" stroke-linecap="round" class="Up"></path><path d="M1251 153L1250 560" stroke-width="8" stroke="url(#SvgjsLinearGradient1022)" stroke-linecap="round" class="Down"></path><path d="M535 489L534 300" stroke-width="8" stroke="url(#SvgjsLinearGradient1022)" stroke-linecap="round" class="Down"></path><path d="M703 119L702 475" stroke-width="6" stroke="url(#SvgjsLinearGradient1022)" stroke-linecap="round" class="Down"></path><path d="M481 362L480 2" stroke-width="8" stroke="url(#SvgjsLinearGradient1023)" stroke-linecap="round" class="Up"></path><path d="M402 534L401 319" stroke-width="10" stroke="url(#SvgjsLinearGradient1023)" stroke-linecap="round" class="Up"></path><path d="M92 506L91 246" stroke-width="10" stroke="url(#SvgjsLinearGradient1022)" stroke-linecap="round" class="Down"></path><path d="M275 479L274 333" stroke-width="10" stroke="url(#SvgjsLinearGradient1023)" stroke-linecap="round" class="Up"></path><path d="M817 249L816 78" stroke-width="6" stroke="url(#SvgjsLinearGradient1022)" stroke-linecap="round" class="Down"></path><path d="M276 83L275 -288" stroke-width="10" stroke="url(#SvgjsLinearGradient1022)" stroke-linecap="round" class="Down"></path><path d="M795 430L794 118" stroke-width="10" stroke="url(#SvgjsLinearGradient1023)" stroke-linecap="round" class="Up"></path><path d="M513 188L512 -169" stroke-width="6" stroke="url(#SvgjsLinearGradient1023)" stroke-linecap="round" class="Up"></path><path d="M871 121L870 284" stroke-width="10" stroke="url(#SvgjsLinearGradient1023)" stroke-linecap="round" class="Up"></path><path d="M1130 272L1129 431" stroke-width="6" stroke="url(#SvgjsLinearGradient1023)" stroke-linecap="round" class="Up"></path><path d="M645 316L644 87" stroke-width="6" stroke="url(#SvgjsLinearGradient1022)" stroke-linecap="round" class="Down"></path><path d="M1360 533L1359 386" stroke-width="6" stroke="url(#SvgjsLinearGradient1023)" stroke-linecap="round" class="Up"></path><path d="M338 444L337 86" stroke-width="6" stroke="url(#SvgjsLinearGradient1023)" stroke-linecap="round" class="Up"></path><path d="M162 502L161 342" stroke-width="8" stroke="url(#SvgjsLinearGradient1023)" stroke-linecap="round" class="Up"></path><path d="M1354 369L1353 140" stroke-width="6" stroke="url(#SvgjsLinearGradient1023)" stroke-linecap="round" class="Up"></path><path d="M1065 435L1064 245" stroke-width="6" stroke="url(#SvgjsLinearGradient1022)" stroke-linecap="round" class="Down"></path><path d="M1219 457L1218 140" stroke-width="8" stroke="url(#SvgjsLinearGradient1023)" stroke-linecap="round" class="Up"></path><path d="M963 311L962 27" stroke-width="6" stroke="url(#SvgjsLinearGradient1022)" stroke-linecap="round" class="Down"></path><path d="M459 232L458 -144" stroke-width="8" stroke="url(#SvgjsLinearGradient1023)" stroke-linecap="round" class="Up"></path><path d="M440 77L439 225" stroke-width="6" stroke="url(#SvgjsLinearGradient1022)" stroke-linecap="round" class="Down"></path><path d="M468 303L467 -54" stroke-width="6" stroke="url(#SvgjsLinearGradient1023)" stroke-linecap="round" class="Up"></path><path d="M251 231L250 552" stroke-width="6" stroke="url(#SvgjsLinearGradient1023)" stroke-linecap="round" class="Up"></path><path d="M1244 479L1243 214" stroke-width="8" stroke="url(#SvgjsLinearGradient1023)" stroke-linecap="round" class="Up"></path><path d="M1304 516L1303 112" stroke-width="6" stroke="url(#SvgjsLinearGradient1023)" stroke-linecap="round" class="Up"></path><path d="M1107 273L1106 78" stroke-width="10" stroke="url(#SvgjsLinearGradient1023)" stroke-linecap="round" class="Up"></path><path d="M437 151L436 -146" stroke-width="6" stroke="url(#SvgjsLinearGradient1022)" stroke-linecap="round" class="Down"></path><path d="M782 511L781 896" stroke-width="10" stroke="url(#SvgjsLinearGradient1023)" stroke-linecap="round" class="Up"></path><path d="M966 155L965 408" stroke-width="8" stroke="url(#SvgjsLinearGradient1023)" stroke-linecap="round" class="Up"></path></g><defs><mask id="SvgjsMask1021"><rect width="1440" height="560" fill="#ffffff"></rect></mask><linearGradient x1="0%" y1="0%" x2="0%" y2="100%" id="SvgjsLinearGradient1022"><stop stop-color="rgba(28, 83, 142, 0)" offset="0"></stop><stop stop-color="#1c538e" offset="1"></stop></linearGradient><linearGradient x1="0%" y1="100%" x2="0%" y2="0%" id="SvgjsLinearGradient1023"><stop stop-color="rgba(28, 83, 142, 0)" offset="0"></stop><stop stop-color="#1c538e" offset="1"></stop></linearGradient></defs></svg>