<svg xmlns="http://www.w3.org/2000/svg" version="1.1" xmlns:xlink="http://www.w3.org/1999/xlink" xmlns:svgjs="http://svgjs.com/svgjs" width="1440" height="560" preserveAspectRatio="none" viewBox="0 0 1440 560"><g mask="url(&quot;#SvgjsMask1015&quot;)" fill="none"><path d="M1309 163L1698 552" stroke-width="10" stroke="url(#SvgjsLinearGradient1016)" stroke-linecap="round" class="TopLeft"></path><path d="M1245 277L1477 509" stroke-width="10" stroke="url(#SvgjsLinearGradient1017)" stroke-linecap="round" class="BottomRight"></path><path d="M1164 182L1501 519" stroke-width="6" stroke="url(#SvgjsLinearGradient1017)" stroke-linecap="round" class="BottomRight"></path><path d="M831 290L441 -100" stroke-width="6" stroke="url(#SvgjsLinearGradient1016)" stroke-linecap="round" class="TopLeft"></path><path d="M237 456L621 840" stroke-width="6" stroke="url(#SvgjsLinearGradient1016)" stroke-linecap="round" class="TopLeft"></path><path d="M152 508L-26 330" stroke-width="6" stroke="url(#SvgjsLinearGradient1016)" stroke-linecap="round" class="TopLeft"></path><path d="M1393 170L1045 -178" stroke-width="6" stroke="url(#SvgjsLinearGradient1016)" stroke-linecap="round" class="TopLeft"></path><path d="M188 549L-40 321" stroke-width="10" stroke="url(#SvgjsLinearGradient1016)" stroke-linecap="round" class="TopLeft"></path><path d="M1055 455L638 38" stroke-width="10" stroke="url(#SvgjsLinearGradient1017)" stroke-linecap="round" class="BottomRight"></path><path d="M340 418L722 800" stroke-width="8" stroke="url(#SvgjsLinearGradient1017)" stroke-linecap="round" class="BottomRight"></path><path d="M361 81L214 -66" stroke-width="6" stroke="url(#SvgjsLinearGradient1017)" stroke-linecap="round" class="BottomRight"></path><path d="M1234 148L1439 353" stroke-width="10" stroke="url(#SvgjsLinearGradient1017)" stroke-linecap="round" class="BottomRight"></path><path d="M457 26L187 -244" stroke-width="8" stroke="url(#SvgjsLinearGradient1017)" stroke-linecap="round" class="BottomRight"></path><path d="M715 453L859 597" stroke-width="6" stroke="url(#SvgjsLinearGradient1017)" stroke-linecap="round" class="BottomRight"></path><path d="M838 332L532 26" stroke-width="10" stroke="url(#SvgjsLinearGradient1016)" stroke-linecap="round" class="TopLeft"></path><path d="M604 81L886 363" stroke-width="6" stroke="url(#SvgjsLinearGradient1016)" stroke-linecap="round" class="TopLeft"></path><path d="M541 285L260 4" stroke-width="6" stroke="url(#SvgjsLinearGradient1017)" stroke-linecap="round" class="BottomRight"></path><path d="M433 158L786 511" stroke-width="10" stroke="url(#SvgjsLinearGradient1017)" stroke-linecap="round" class="BottomRight"></path><path d="M153 549L561 957" stroke-width="10" stroke="url(#SvgjsLinearGradient1017)" stroke-linecap="round" class="BottomRight"></path><path d="M836 363L507 34" stroke-width="10" stroke="url(#SvgjsLinearGradient1016)" stroke-linecap="round" class="TopLeft"></path><path d="M189 332L-77 66" stroke-width="10" stroke="url(#SvgjsLinearGradient1016)" stroke-linecap="round" class="TopLeft"></path><path d="M1052 53L1415 416" stroke-width="10" stroke="url(#SvgjsLinearGradient1017)" stroke-linecap="round" class="BottomRight"></path><path d="M1203 460L843 100" stroke-width="10" stroke="url(#SvgjsLinearGradient1016)" stroke-linecap="round" class="TopLeft"></path><path d="M159 412L-155 98" stroke-width="10" stroke="url(#SvgjsLinearGradient1017)" stroke-linecap="round" class="BottomRight"></path><path d="M851 420L496 65" stroke-width="6" stroke="url(#SvgjsLinearGradient1017)" stroke-linecap="round" class="BottomRight"></path><path d="M1068 451L734 117" stroke-width="8" stroke="url(#SvgjsLinearGradient1017)" stroke-linecap="round" class="BottomRight"></path><path d="M100 345L372 617" stroke-width="6" stroke="url(#SvgjsLinearGradient1016)" stroke-linecap="round" class="TopLeft"></path><path d="M1063 417L1341 695" stroke-width="6" stroke="url(#SvgjsLinearGradient1017)" stroke-linecap="round" class="BottomRight"></path><path d="M447 381L169 103" stroke-width="8" stroke="url(#SvgjsLinearGradient1017)" stroke-linecap="round" class="BottomRight"></path><path d="M1189 258L881 -50" stroke-width="8" stroke="url(#SvgjsLinearGradient1016)" stroke-linecap="round" class="TopLeft"></path><path d="M345 416L-12 59" stroke-width="10" stroke="url(#SvgjsLinearGradient1016)" stroke-linecap="round" class="TopLeft"></path><path d="M822 441L650 269" stroke-width="6" stroke="url(#SvgjsLinearGradient1017)" stroke-linecap="round" class="BottomRight"></path><path d="M371 26L9 -336" stroke-width="10" stroke="url(#SvgjsLinearGradient1017)" stroke-linecap="round" class="BottomRight"></path><path d="M817 549L1116 848" stroke-width="6" stroke="url(#SvgjsLinearGradient1017)" stroke-linecap="round" class="BottomRight"></path><path d="M260 318L-26 32" stroke-width="8" stroke="url(#SvgjsLinearGradient1016)" stroke-linecap="round" class="TopLeft"></path><path d="M1020 213L1367 560" stroke-width="8" stroke="url(#SvgjsLinearGradient1016)" stroke-linecap="round" class="TopLeft"></path><path d="M251 180L475 404" stroke-width="10" stroke="url(#SvgjsLinearGradient1017)" stroke-linecap="round" class="BottomRight"></path><path d="M504 487L298 281" stroke-width="10" stroke="url(#SvgjsLinearGradient1017)" stroke-linecap="round" class="BottomRight"></path><path d="M948 298L1310 660" stroke-width="6" stroke="url(#SvgjsLinearGradient1017)" stroke-linecap="round" class="BottomRight"></path></g><defs><mask id="SvgjsMask1015"><rect width="1440" height="560" fill="#ffffff"></rect></mask><linearGradient x1="100%" y1="100%" x2="0%" y2="0%" id="SvgjsLinearGradient1016"><stop stop-color="rgba(28, 83, 142, 0)" offset="0"></stop><stop stop-color="#1c538e" offset="1"></stop></linearGradient><linearGradient x1="0%" y1="0%" x2="100%" y2="100%" id="SvgjsLinearGradient1017"><stop stop-color="rgba(28, 83, 142, 0)" offset="0"></stop><stop stop-color="#1c538e" offset="1"></stop></linearGradient></defs></svg>